<svg id="wave" style="transform:rotate(180deg); transition: 0.3s" viewBox="0 0 1440 90" version="1.1" xmlns="http://www.w3.org/2000/svg"><defs><linearGradient id="sw-gradient-0" x1="0" x2="0" y1="1" y2="0"><stop stop-color="rgba(255, 249, 234, 1)" offset="0%"></stop><stop stop-color="rgba(255, 249, 234, 1)" offset="100%"></stop></linearGradient></defs><path style="transform:translate(0, 0px); opacity:1" fill="url(#sw-gradient-0)" d="M0,90L48,81.7C96,73,192,57,288,51.7C384,47,480,53,576,58.3C672,63,768,67,864,66.7C960,67,1056,63,1152,55C1248,47,1344,33,1440,28.3C1536,23,1632,27,1728,35C1824,43,1920,57,2016,56.7C2112,57,2208,43,2304,46.7C2400,50,2496,70,2592,65C2688,60,2784,30,2880,15C2976,0,3072,0,3168,3.3C3264,7,3360,13,3456,28.3C3552,43,3648,67,3744,75C3840,83,3936,77,4032,68.3C4128,60,4224,50,4320,48.3C4416,47,4512,53,4608,61.7C4704,70,4800,80,4896,85C4992,90,5088,90,5184,88.3C5280,87,5376,83,5472,83.3C5568,83,5664,87,5760,86.7C5856,87,5952,83,6048,71.7C6144,60,6240,40,6336,33.3C6432,27,6528,33,6624,38.3C6720,43,6816,47,6864,48.3L6912,50L6912,100L6864,100C6816,100,6720,100,6624,100C6528,100,6432,100,6336,100C6240,100,6144,100,6048,100C5952,100,5856,100,5760,100C5664,100,5568,100,5472,100C5376,100,5280,100,5184,100C5088,100,4992,100,4896,100C4800,100,4704,100,4608,100C4512,100,4416,100,4320,100C4224,100,4128,100,4032,100C3936,100,3840,100,3744,100C3648,100,3552,100,3456,100C3360,100,3264,100,3168,100C3072,100,2976,100,2880,100C2784,100,2688,100,2592,100C2496,100,2400,100,2304,100C2208,100,2112,100,2016,100C1920,100,1824,100,1728,100C1632,100,1536,100,1440,100C1344,100,1248,100,1152,100C1056,100,960,100,864,100C768,100,672,100,576,100C480,100,384,100,288,100C192,100,96,100,48,100L0,100Z"></path></svg>